<svg xmlns="http://www.w3.org/2000/svg" viewBox="0 0 227.38 54.85"><defs><style>.cls-1{fill:#1d1d1b;}</style></defs><title>stimple wordmark_1</title><g id="Layer_2" data-name="Layer 2"><g id="Layer_1-2" data-name="Layer 1"><circle class="cls-1" cx="219.66" cy="35.63" r="7.72"/><path class="cls-1" d="M5.45,29.72c4.82,3.92,8.62,5.51,13.21,5.51s7.15-1.42,7.15-3.86c0-2.21-1.53-3.29-5.5-4l-8.74-1.53c-6.46-1.14-10-5.05-10-10.89,0-7.72,6.13-12.37,16.28-12.37A27.82,27.82,0,0,1,34.49,8.28l-5.16,7.21c-4.2-3.24-8-4.71-12.2-4.71-4,0-6.41,1.3-6.41,3.46,0,2,1.36,3,4.71,3.52l8.22,1.36c7.66,1.24,11.69,5.16,11.69,11.29,0,8.05-6.64,13-17.42,13A28.21,28.21,0,0,1,0,36.82Z"/><path class="cls-1" d="M42.51,20.54H36.44V12.88h6.07V5.16l9.19-2v9.7h8.39v7.66H51.7v11.4c0,2.66,1,3.63,4,3.63A13.47,13.47,0,0,0,59.81,35v7.43a27.37,27.37,0,0,1-6.41.9c-7.21,0-10.89-3.23-10.89-9.53Z"/><path class="cls-1" d="M63.22,5.05a5,5,0,1,1,5,5.05A5.06,5.06,0,0,1,63.22,5.05Zm9.65,37.84h-9.2v-30h9.2Z"/><path class="cls-1" d="M78.54,12.88h9.19v1.93a11.88,11.88,0,0,1,7.49-2.5,11,11,0,0,1,8.91,4.14,12.84,12.84,0,0,1,9.75-4.14c6.81,0,11.63,5,11.63,12.08v18.5h-9.19V25.64c0-3.29-1.92-5.44-4.88-5.44a6.11,6.11,0,0,0-4.93,2.26c.06.63.11,1.25.11,1.93v18.5H97.43V25.64c0-3.29-1.93-5.44-4.88-5.44a5.89,5.89,0,0,0-4.82,2.15V42.89H78.54Z"/><path class="cls-1" d="M131,12.88h9.08v2.21a13.52,13.52,0,0,1,8.05-2.61,15.4,15.4,0,1,1-7.94,28.82V54.85H131Zm9.19,9.81v10.5a9.33,9.33,0,0,0,6.36,2.32,7.6,7.6,0,1,0,0-15.2A8.83,8.83,0,0,0,140.17,22.69Z"/><path class="cls-1" d="M177,42.89h-9.19V3.18l9.19-2Z"/><path class="cls-1" d="M197.6,43.45c-9.19,0-16.34-6.8-16.34-15.54a15.41,15.41,0,0,1,15.66-15.54c8.79,0,15.15,6.92,15.15,16.39V31H190.68a7.77,7.77,0,0,0,7.37,4.76,8.16,8.16,0,0,0,6-2.26l6.07,5.39A18.14,18.14,0,0,1,197.6,43.45Zm-7.09-18.83h12.54a6.59,6.59,0,0,0-6.3-4.76A6.25,6.25,0,0,0,190.51,24.62Z"/></g></g></svg>